PathFileType	4	(X/Y/Z)	c:/Users/goper/Files/vsCode/490R/osim_files/C05/C05_ROM.trc
DataRate	CameraRate	NumFrames	NumMarkers	Units                	OrigDataRate	OrigDataStartFrame	OrigNumFrames
250.00	250.00	5	36	mm	250.0	2083	3332
                Frame#	Time	LPSIS			LASIS			LTH1			LTH2			LTH3			LTH4			LLFE			LMFE			LSH1			LSH2			LSH3			LSH4			LLMAL			LMMAL			LCAL			LMTP5			LTOE			LMTP1			RPSIS			RASIS			RTH1			RTH2			RTH3			RTH4			RLFE			RMFE			RSH1			RSH2			RSH3			RSH4			RLMAL			RMMAL			RCAL			RMTP1			RTOE			RMTP5		
		X1	Y1	Z1	X2	Y2	Z2	X3	Y3	Z3	X4	Y4	Z4	X5	Y5	Z5	X6	Y6	Z6	X7	Y7	Z7	X8	Y8	Z8	X9	Y9	Z9	X10	Y10	Z10	X11	Y11	Z11	X12	Y12	Z12	X13	Y13	Z13	X14	Y14	Z14	X15	Y15	Z15	X16	Y16	Z16	X17	Y17	Z17	X18	Y18	Z18	X19	Y19	Z19	X20	Y20	Z20	X21	Y21	Z21	X22	Y22	Z22	X23	Y23	Z23	X24	Y24	Z24	X25	Y25	Z25	X26	Y26	Z26	X27	Y27	Z27	X28	Y28	Z28	X29	Y29	Z29	X30	Y30	Z30	X31	Y31	Z31	X32	Y32	Z32	X33	Y33	Z33	X34	Y34	Z34	X35	Y35	Z35	X36	Y36	Z36

2083	8.32800	-588.40723	683.03473	406.13712	0.00000	0.00000	0.00000	-303.61157	459.61487	276.97549	-241.91570	446.40213	280.24911	-282.03366	531.91797	273.86093	-223.32297	509.78363	277.42966	0.00000	0.00000	0.00000	-108.04499	452.24084	414.47183	-234.39026	349.46643	276.53790	-252.61081	308.40149	276.64816	-179.23369	318.54205	262.46289	-206.17336	283.04584	265.15411	-351.30148	97.78407	284.11725	-317.12735	105.50134	368.04523	-414.21472	70.00299	334.96338	-221.65096	40.51219	243.79228	-180.93176	66.37882	301.09161	-191.22195	46.55895	350.29080	-588.47144	683.84778	515.62500	0.00000	0.00000	0.00000	-329.25842	456.26053	680.36005	-268.41925	440.07047	682.82660	-304.43829	525.83856	693.73907	-246.89142	499.89890	696.45667	-140.17845	455.16797	696.91272	-117.25964	442.72690	575.17554	-239.89433	354.07330	695.05457	-258.37204	308.75632	690.91998	-187.48404	322.81982	697.22626	-212.45303	283.74200	691.78699	-356.51584	95.58542	646.32343	-332.39767	109.76659	564.89038	-426.17203	69.61231	596.40472	-211.01657	43.44959	569.41492	-190.83594	66.00182	617.90857	-238.94890	33.05532	681.48846
2084	8.33200	-588.86060	680.47046	406.04150	0.00000	0.00000	0.00000	-303.46371	458.31592	276.86432	-241.73343	445.38324	280.09879	-282.23291	530.70361	273.68542	-223.33966	508.74274	277.34915	0.00000	0.00000	0.00000	-107.74048	451.98288	414.29764	-234.06725	349.31570	276.44589	-252.43115	308.27856	276.62241	-179.02832	318.38577	262.36401	-205.92799	282.86249	265.05905	-351.27518	97.79023	284.15948	-317.09991	105.44517	368.09296	-414.18582	69.96465	335.01944	-221.67178	40.50378	243.79445	-180.93263	66.36386	301.09836	-191.19472	46.58756	350.28897	-588.84253	681.26208	515.51581	0.00000	0.00000	0.00000	-328.91376	454.78534	680.48169	-268.09113	439.14157	682.99139	-304.44745	524.70642	693.80511	-246.58095	498.75400	696.42212	-139.91989	454.87833	697.05786	-117.01360	442.49249	575.31110	-239.59448	353.90955	695.20502	-258.15668	308.58246	691.00604	-187.20428	322.56335	697.33624	-212.20435	283.57419	691.83429	-356.49890	95.57088	646.32812	-332.37128	109.77615	564.87048	-426.10916	69.59605	596.38483	-210.99626	43.44243	569.41290	-190.81145	65.95053	617.91962	-238.96117	33.02871	681.49561
2085	8.33600	-589.28601	677.98969	405.96078	0.00000	0.00000	0.00000	-303.28668	457.03561	276.73706	-241.50279	444.40311	279.96536	-282.40109	529.58954	273.45584	-223.33409	507.63202	277.25101	0.00000	0.00000	0.00000	-107.41377	451.75409	414.10217	-233.76122	349.15900	276.31882	-252.24150	308.11078	276.54224	-178.84573	318.16379	262.25037	-205.73729	282.67645	264.96823	-351.23105	97.77688	284.19614	-317.06326	105.41797	368.11194	-414.17465	69.92619	335.09821	-221.68668	40.50362	243.77168	-180.93053	66.36317	301.08115	-191.20920	46.56387	350.29053	-589.25262	678.76428	515.44928	0.00000	0.00000	0.00000	-328.69543	453.38281	680.68085	-267.81433	438.20425	683.08374	-304.58920	523.50452	693.87531	-247.38507	498.44983	696.97467	-139.75673	454.60941	697.16595	-116.72205	442.31970	575.38934	-239.36578	353.74716	695.33447	-257.94629	308.40732	691.06885	-187.02026	322.33990	697.41187	-212.03511	283.39624	691.87817	-356.47955	95.57346	646.29651	-332.37238	109.79286	564.84259	-426.11661	69.58187	596.37128	-210.98106	43.42596	569.38531	-190.79845	65.90639	617.91229	-238.98660	32.99768	681.49463
2086	8.34000	-589.83527	675.50891	405.96500	0.00000	0.00000	0.00000	-303.16864	455.78918	276.54736	-241.32990	443.40396	279.78574	-282.64874	528.43024	273.26733	-223.87381	506.30936	277.35318	0.00000	0.00000	0.00000	-107.17988	451.47275	413.94312	-233.48540	349.01306	276.15619	-251.30168	308.59546	275.87439	-178.64935	317.93256	262.11365	-205.53406	282.50787	264.83951	-351.24860	97.75542	284.22531	-317.06708	105.40427	368.16351	-414.16125	69.90866	335.11502	-221.69371	40.49977	243.77469	-180.97585	66.32525	301.08331	-191.16550	46.58044	350.26685	-589.80518	676.37628	515.33881	0.00000	0.00000	0.00000	-328.57892	452.05807	681.24652	-267.59134	437.32224	683.16974	-304.55362	522.27148	693.83051	-247.45148	497.66122	697.08002	-138.95033	454.50653	697.19934	-116.47038	442.10025	575.50696	-239.22173	353.61093	695.46246	-257.85135	308.28925	691.14697	-186.89072	322.15744	697.49127	-211.89391	283.22446	691.93079	-356.49591	95.56655	646.29004	-332.36874	109.80336	564.82782	-426.13950	69.57507	596.35461	-210.98767	43.40298	569.36517	-190.80371	65.86005	617.92584	-239.01180	32.98329	681.50671
2087	8.34400	-590.20148	673.16962	405.88666	0.00000	0.00000	0.00000	-302.97617	454.54712	276.36667	-241.15790	442.46265	279.61264	-282.80447	527.32349	273.07904	-224.10255	506.25055	276.74292	0.00000	0.00000	0.00000	-106.94976	451.21738	413.74390	-233.28354	348.87485	275.98160	-251.75064	307.85699	276.22430	-178.47775	317.73990	261.97577	-205.35332	282.33060	264.70993	-351.22281	97.73610	284.24277	-317.06186	105.39860	368.17313	-414.18823	69.90929	335.14325	-221.70906	40.49941	243.76169	-180.98894	66.29205	301.08377	-191.22125	46.54134	350.25067	-590.21637	674.09650	515.26166	0.00000	0.00000	0.00000	-328.52713	450.72864	681.65491	-267.43054	436.62155	683.28119	-304.42325	520.85547	693.78284	-247.53615	496.86917	697.17297	-139.54887	454.17383	697.38824	-116.30000	441.84399	575.58435	-239.09505	353.50928	695.57135	-257.76236	308.18762	691.20715	-186.78146	321.98666	697.53650	-211.81209	283.06680	691.97925	-356.49207	95.55109	646.28259	-332.37460	109.79894	564.79791	-426.18076	69.58823	596.32849	-210.99341	43.36561	569.35822	-190.82596	65.82903	617.89795	-239.04439	32.97140	681.50226
